PathFileType	4	(X/Y/Z)	Formatted/subject18/trials/walk2/markers.trc
DataRate	CameraRate	NumFrames	NumMarkers	Units	OrigDataRate	OrigDataStartFrame	OrigNumFrames
200.00000000000426	200.00000000000426	4	64	m	200.00000000000426	26	215
Frame#	Time	CLAV			C7			RACR			RASH			RPSH			RLEL			RMEL			RUA1			RUA2			RUA3			RFAsuperior			RFAradius			RFAulna			RASI			RPSI			RCAL			RTOE			RMT5			RTH1			RTH2			RTH3			RTB1			RTB2			RTB3			RLFC			RMFC			RLMAL			RMMAL			RHJC			RKJC			REJC			RAJC			RSJC			LACR			LASH			LPSH			LLEL			LMEL			LUA1			LUA2			LUA3			LFAsuperior			LFAradius			LFAulna			LASI			LPSI			LCAL			LTOE			LMT5			LTH1			LTH2			LTH3			LTB1			LTB2			LTB3			LLFC			LMFC			LLMAL			LMMAL			LHJC			LKJC			LEJC			LAJC			LSJC			
		X1	Y1	Z1	X2	Y2	Z2	X3	Y3	Z3	X4	Y4	Z4	X5	Y5	Z5	X6	Y6	Z6	X7	Y7	Z7	X8	Y8	Z8	X9	Y9	Z9	X10	Y10	Z10	X11	Y11	Z11	X12	Y12	Z12	X13	Y13	Z13	X14	Y14	Z14	X15	Y15	Z15	X16	Y16	Z16	X17	Y17	Z17	X18	Y18	Z18	X19	Y19	Z19	X20	Y20	Z20	X21	Y21	Z21	X22	Y22	Z22	X23	Y23	Z23	X24	Y24	Z24	X25	Y25	Z25	X26	Y26	Z26	X27	Y27	Z27	X28	Y28	Z28	X29	Y29	Z29	X30	Y30	Z30	X31	Y31	Z31	X32	Y32	Z32	X33	Y33	Z33	X34	Y34	Z34	X35	Y35	Z35	X36	Y36	Z36	X37	Y37	Z37	X38	Y38	Z38	X39	Y39	Z39	X40	Y40	Z40	X41	Y41	Z41	X42	Y42	Z42	X43	Y43	Z43	X44	Y44	Z44	X45	Y45	Z45	X46	Y46	Z46	X47	Y47	Z47	X48	Y48	Z48	X49	Y49	Z49	X50	Y50	Z50	X51	Y51	Z51	X52	Y52	Z52	X53	Y53	Z53	X54	Y54	Z54	X55	Y55	Z55	X56	Y56	Z56	X57	Y57	Z57	X58	Y58	Z58	X59	Y59	Z59	X60	Y60	Z60	X61	Y61	Z61	X62	Y62	Z62	X63	Y63	Z63	X64	Y64	Z64	

27	2.57	0.9923760440070029	1.414214361410219	-0.4525904036328738	0.8888593541478861	1.510115546733041	-0.4833812960775036	0.8927352744580757	1.471873997826513	-0.3216414132450514	0.9503001650746454	1.420786610880738	-0.3343875778309403	0.8359080144133639	1.443589363041352	-0.3376968324309523	0.7790919230841347	1.160669049048753	-0.2482327865683683	0.7658445910393927	1.148638017376397	-0.3219352281891849	0.8883148018449106	1.363066222868702	-0.2690607149390538	0.8263400415624558	1.329866402801225	-0.2804888431820927	0.8598602438425914	1.263907457241345	-0.2802931269270719	0.8192095428653449	1.080866600744362	-0.2626780656838517	0.8198350263639591	0.915965086973526	-0.2523805279560098	0.759182312594182	0.9177621453810926	-0.2341768440770701	0.9656328724706829	1.027486694941883	-0.3729990623790476	0.7990775813228461	1.07258325884129	-0.4345299029031955	0.9602198364683538	0.04051510600516638	-0.4029256240392462	1.175586658399279	0.02381102677966922	-0.4580223193320863	1.167435704463462	0.02925722178189688	-0.3843785209936357	0.9823895319862005	0.8248573531727499	-0.3207057946354802	1.04950468233537	0.7229548128006442	-0.3618026943298948	1.022735597412511	0.5791125169459439	-0.3471273323378069	1.074457993508248	0.3809441178412878	-0.4141152348763535	1.026384550567443	0.2934168402391686	-0.34654196389626	1.064546114152358	0.1821807845439955	-0.4126342872460507	1.050114079192828	0.502647231618274	-0.3554087358484106	1.041735641234693	0.5147588500529352	-0.4672366443474119	1.026532767146812	0.08007696112181906	-0.3656985191844486	1.035632434846779	0.08740639467335537	-0.4477234172660371	0.905387094257688	0.9295065468112916	-0.3839029416712731	1.045674597363835	0.5196751379345175	-0.4176999607455478	0.7869637773212461	1.153073223754306	-0.288403166521667	1.019517425179385	0.06707746266186482	-0.4106056214150929	0.9048281139761674	1.426813252480717	-0.3181504077135276	0.9341572721262513	1.479793522514196	-0.6438712474730903	0.9758815807299707	1.419086447220574	-0.6041094467471683	0.8740156140865047	1.455320461009932	-0.6358837126362877	0.94128141182809	1.144673592663342	-0.7548472941448786	0.907496762647487	1.1317550404569	-0.6915693124163181	0.9363132165314745	1.352664356972439	-0.7095329273528221	0.8895411987025319	1.282644174823676	-0.6941138415730694	0.9620849278722917	1.271656045248024	-0.7075511932274831	1.01072094129964	1.101084002800087	-0.7219861216584105	1.117289461819657	0.9798141313505995	-0.7024353989820912	1.079017824778723	0.9504173935437883	-0.7387897013382033	0.9469705266521659	1.016501405261142	-0.6265738190534927	0.7867569052316239	1.066245997856803	-0.5337801601567529	0.4062837422930312	0.2256347614761551	-0.6014759918922826	0.5206838790125231	0.03438048290499117	-0.539140597265748	0.5215407737283309	0.05634050323886654	-0.6323777682452566	0.8471387288461053	0.7891987875257285	-0.6711114288939738	0.8859414997286693	0.6790826879761778	-0.6520499405746247	0.8163823040903685	0.5788330309736986	-0.6474025903450416	0.7228168473158993	0.3755127216773774	-0.584732413456962	0.6126291970657566	0.3334762788917957	-0.6455820628775079	0.5633969789120115	0.2298668245426521	-0.5987931377618436	0.7985731291976577	0.4953279559230384	-0.6424891589478038	0.8120537954000536	0.4853233712587514	-0.5289392399857531	0.4755988336944607	0.2048128375898082	-0.639500654265299	0.4834753068331796	0.2004145378197831	-0.5622942034197185	0.8812671849832452	0.92066775023917	-0.5993957799836218	0.8102754898101376	0.4866665024130636	-0.5868615004172895	0.9360538510356262	1.140552044591284	-0.7143240938318898	0.4628653994304933	0.1954155835920328	-0.5944978842306348	0.9449126591089296	1.430308281509032	-0.6390024619619248	
28	2.575	0.9987606058549299	1.414958969466456	-0.452104441447595	0.8950502429390393	1.510655341624504	-0.4828808360202247	0.8991121106503039	1.472523682940781	-0.3211195725595281	0.9567589788778498	1.421531185762844	-0.3338752090943946	0.8423238616185997	1.444127297471224	-0.3371156532836216	0.7866064644209527	1.161131306093828	-0.2466156282267178	0.773196278974982	1.148854652472337	-0.3202480812106934	0.8951158229633318	1.363822208596572	-0.26829910042682	0.8332178276195673	1.330390981820471	-0.2794656723442951	0.866951875280947	1.264541473108176	-0.2791810746385247	0.8272234252263496	1.081522685792701	-0.2610935253629407	0.829018621030897	0.9166547763844135	-0.2504028997432369	0.7684562408305565	0.9180876684869501	-0.231869143027045	0.9722701463979849	1.028209953939798	-0.3717999541199619	0.8058517117010817	1.072999797652176	-0.4339222843542288	0.9604485015394224	0.04058860050549181	-0.4027157620528022	1.17585487341841	0.02372470882206242	-0.457608787063375	1.167631639412409	0.02906795217528838	-0.3839654825698148	0.9887572825855392	0.8248462480777876	-0.3197874779642794	1.055352482595226	0.7226362150566806	-0.3609665356352249	1.027827971481462	0.5789209086814571	-0.3464452328224216	1.077895635300688	0.3803926782138451	-0.4136083555824979	1.028970592723352	0.2933086767578799	-0.3460735934907153	1.065974123260113	0.1817387953151181	-0.4122616627351153	1.054809426904936	0.5023221035146137	-0.3547954950449889	1.046529955464862	0.5145903675869595	-0.4666136988058718	1.026951597394417	0.079991749112027	-0.3653793345556114	1.036086805440707	0.08728647361762654	-0.4474033762877133	0.9123224812709629	0.929959974813806	-0.3829027228616969	1.050515548877996	0.5194102711343249	-0.4170825195615357	0.7943927853438043	1.153450380254991	-0.2867864965440834	1.019784220712997	0.06709549143380455	-0.4102921953338713	0.9112880394589989	1.427486857430735	-0.3176087658184207	0.9402856305307654	1.480312251835449	-0.6433844423234488	0.9821473172080308	1.419705169567738	-0.6036144978469827	0.880193651742417	1.455736802953112	-0.635337586946174	0.9462634456688325	1.145002644816202	-0.7537669298929068	0.9126370397412363	1.132311057713127	-0.6903588631805034	0.9420751447700577	1.353095381118209	-0.7088436166348969	0.8951368116173509	1.283249466502219	-0.6931421243962096	0.9676041661538953	1.272012201947503	-0.7067839888110637	1.015496961200433	1.100979338311688	-0.7211427872178303	1.121289493930979	0.9789692147602751	-0.7019873228853639	1.082690203881936	0.9498475696836763	-0.7382164036219419	0.9544874621906214	1.017049158788211	-0.6254302554589172	0.7938786913112964	1.066585671070726	-0.5332101449615082	0.4162612073462825	0.2338361885059673	-0.6020362741682529	0.5224199423090391	0.0382199589756111	-0.5386651016061577	0.5244938537427779	0.05979831411053461	-0.6319722304598334	0.8566731557451716	0.7895535690169802	-0.6705170718323843	0.8971176526648053	0.6799873698633181	-0.6517010834964561	0.8290753921163913	0.5786881333312137	-0.6473664844846668	0.7347945289140796	0.3765136937389668	-0.5849080324337091	0.6238881759924126	0.3365072572698247	-0.6458204822857035	0.5726808007230231	0.2338751590145793	-0.5989975074326466	0.8125243502374715	0.4949116428070895	-0.6426794037455997	0.826062120411531	0.4848230483601968	-0.5291437123853316	0.484461921845932	0.2104430254472226	-0.6397612534811291	0.4921899105774205	0.2059554594360199	-0.5625449348457261	0.888755532404485	0.9213398112543161	-0.5984401584777047	0.8243258547026687	0.4860047365330808	-0.5870442394582279	0.9411498082824856	1.140975958203595	-0.7132196633813328	0.471516731269519	0.2013201133805052	-0.5947624472968575	0.9511330223856733	1.430849424211158	-0.6384920735520045	
29	2.58	1.005116203320318	1.415671964017776	-0.4516493617094416	0.9012246751307431	1.51118372668706	-0.4823881815548519	0.9054927836580908	1.473152681390053	-0.3206085432721173	0.9632100524158355	1.422245435811044	-0.3333863241044941	0.8487359189731457	1.444655825563834	-0.3365371983788344	0.794075202671751	1.161600156492662	-0.2450088781794517	0.7804988394713628	1.149078913573039	-0.3185696575953451	0.9019034320103836	1.364560508545368	-0.2675527081035116	0.8400773380477401	1.330909748746992	-0.2784550725275393	0.8740133663081602	1.26516454412321	-0.2780824869535989	0.8352134596879063	1.08219725125926	-0.259524902582105	0.8382364856193076	0.9173724403824024	-0.2484531913140678	0.777768750141864	0.9184214320032692	-0.2295876726057913	0.9788446344064996	1.028939617222744	-0.3706527392829185	0.8125463611889818	1.073400077309859	-0.4333309750126827	0.9606640544621072	0.04064591684987065	-0.4025180683280847	1.176115556586935	0.02363827385594138	-0.4571891794887056	1.167813462478903	0.02888184225040141	-0.3835475584602785	0.9950344576060068	0.824807361261807	-0.3189041851787838	1.061072493013352	0.7222668297907607	-0.3601588041971022	1.032743355905873	0.5786934426933321	-0.3457817828757447	1.081183496135383	0.3798228700943147	-0.4131088033993244	1.031438909768775	0.2931710869997453	-0.3456167904991508	1.067335424433002	0.1812931307850805	-0.4118944139917667	1.059300436519179	0.5019534446326438	-0.3541958743826445	1.051125079184836	0.514372967587719	-0.4660050404872637	1.027343531158541	0.07989716959321669	-0.3650683618644974	1.036520979504577	0.08715953333054327	-0.4470905598875557	0.9192064039644836	0.9304045963931691	-0.3819441625926772	1.055152428484018	0.5191019525124396	-0.4164778992671765	0.801773743760512	1.153831894086641	-0.2851798707104105	1.020035964413536	0.06710207145890718	-0.4099875642826671	0.9177441999110555	1.428137519388755	-0.3170825472222545	0.9463648852199305	1.480820035577492	-0.642914686282786	0.9883595238822374	1.42030339852916	-0.6031471784388863	0.8863197060389264	1.456152780747779	-0.6347996705577531	0.9512430329714937	1.145330006100458	-0.7527228153286452	0.9177707314136789	1.132856318320235	-0.6891900944315257	0.9477989487167195	1.353518236648646	-0.7081803436301284	0.9007039363974674	1.283839884276672	-0.6922059018058664	0.9730966901913304	1.272364577259625	-0.7060442752621952	1.020265707634479	1.100876511933593	-0.7203333950430916	1.125280617263396	0.9781358882683658	-0.7015698638650667	1.086359789662087	0.9492914147196785	-0.7376764729526473	0.9618943351436123	1.017616207042126	-0.6243328226558627	0.8009028750144505	1.066913344140805	-0.5326533039398913	0.4266378042424696	0.2420945481378957	-0.6025230287135176	0.5245735483333035	0.04255857838617107	-0.5381391908264035	0.5278140856416966	0.0637054870518667	-0.6315118527019115	0.8662390568259053	0.7899088791308331	-0.6699360603159308	0.9083824663404116	0.6809491377264321	-0.6513280369738701	0.8419382102564804	0.5785819571693752	-0.6473038017210032	0.7470164544282808	0.3776207266472871	-0.5850304838689256	0.6354289343041166	0.33965017761842	-0.6460019803513168	0.582266175070786	0.2380373292370187	-0.5991353192491887	0.8267026124287988	0.4945447162557826	-0.6428288965672726	0.8402744068074991	0.4844060579095284	-0.5293017272370466	0.4936566110498167	0.2162297386440439	-0.6399531171111192	0.5012356187629237	0.211664293359269	-0.562726597873364	0.8961652781733727	0.9220154475684762	-0.5975188674306876	0.8385884222661792	0.4854105532289572	-0.587184113791864	0.9462397607557859	1.141394584202163	-0.7121528259821621	0.4805055558622993	0.2073900171301942	-0.5949574827377847	0.9572961163461648	1.431377547144805	-0.6380033705233856	
30	2.585	1.011442991059991	1.416339697111427	-0.451224354103041	0.9073891457675637	1.511694841109773	-0.4819003263967082	0.9118830773573778	1.473753176369668	-0.3201058172955271	0.9696554340635527	1.422917517848439	-0.332919601733508	0.8551477267664023	1.44517128945362	-0.3359585857601078	0.8015006288459946	1.162066159968692	-0.2434115856944465	0.7877528314249095	1.149302579471168	-0.3168988397540914	0.9086810586668949	1.36527159375123	-0.2668201943666001	0.8469214230125438	1.331413726543028	-0.2774547282855625	0.8810471840491916	1.265767344383866	-0.2769967891982509	0.84318057337478	1.082881276199233	-0.2579724556037158	0.8474878498059271	0.9181100023713725	-0.246535041225173	0.7871193981525999	0.9187556318133127	-0.227336384477195	0.9853303908029633	1.02966383634987	-0.3695596879528624	0.819136012303931	1.073769297341672	-0.432762111059125	0.9608653385852031	0.04068563724022776	-0.4023385883705963	1.17636920650676	0.02355349065883446	-0.456763881644516	1.16797975799087	0.02870139630573653	-0.3831254110952826	1.001209285684197	0.8247379134499767	-0.3180712564566385	1.066663585009173	0.7218501713280625	-0.3593916331018717	1.037493398509329	0.5784318613031656	-0.3451492736370875	1.084335985388813	0.37923486030258	-0.4126253926909845	1.033798181223533	0.2930069860939551	-0.345179775700822	1.068634661370383	0.1808423498312524	-0.4115384544902018	1.063605981191269	0.5015457657218285	-0.3536206431178084	1.055543072136631	0.5141095619583316	-0.4654218558334602	1.027707179536963	0.07979347517306812	-0.3647705403544061	1.036935197413254	0.08702383867071117	-0.4467898916289559	0.9260202147762128	0.9308296918324714	-0.3810462254080234	1.05960611442219	0.5187531631330893	-0.4158975092139716	0.8091081027708474	1.154208882728577	-0.2835826151993164	1.020271205472131	0.06709677107101913	-0.4096965885729617	0.9241992381005122	1.428756467991463	-0.3165698481177518	0.9523974351727791	1.48130937405635	-0.6424597493578738	0.9945168190089307	1.420870190754318	-0.6027063804040576	0.8923944967237104	1.456565051713902	-0.6342672910442335	0.9562214190014355	1.145645916350001	-0.7517120110866881	0.9228991465294719	1.133381201020458	-0.688059851671657	0.953484170286504	1.353923803713868	-0.7075411842337844	0.9062425929934852	1.284405869369651	-0.6913027746564587	0.978562771718859	1.272704173902414	-0.7053297531348481	1.02502676792998	1.100763075861323	-0.7195565472388631	1.129257826871948	0.9772971435317838	-0.7011850489275935	1.090019943527318	0.9487340125412467	-0.7371719597970432	0.9691801098123	1.018221669269857	-0.6232866321266325	0.8078099090904639	1.067226016667292	-0.5321174247823568	0.43742574431194	0.2503666325055851	-0.602927125731631	0.5272276362166072	0.04736442402539145	-0.5375282317121816	0.5315872106066646	0.06802839893668974	-0.6309634556156063	0.8758386530631048	0.7902636911022038	-0.6693743503108563	0.9197342901766244	0.6819719554077585	-0.6509183548675707	0.8549701573998861	0.578522384405347	-0.6471945589262581	0.7594893302538539	0.3788406750817577	-0.5850680170980859	0.6472693561953253	0.3428914501586531	-0.6461040005344804	0.5921791917950371	0.2423369207521338	-0.5991807200595698	0.8411068185407004	0.4942381149531753	-0.6429078543341422	0.8546777699824407	0.4840967724483268	-0.5293808239800504	0.503215967065394	0.2221410557832674	-0.6400584664457982	0.5106379121851869	0.217517319934195	-0.5628201617027514	0.9034913299186245	0.9226980510743887	-0.5966526634810819	0.8530562290520733	0.4849028710884031	-0.5872488787599738	0.9513249983077143	1.141798412323312	-0.711120557662223	0.4898612864107465	0.2135958299899712	-0.595065915257848	0.9634009013762367	1.431884272267515	-0.6375347576306969	
